HIERARCHY
ROOT Hips
{
	OFFSET 0.00000 0.00000 0.00000
	CHANNELS 6 Xposition Yposition Zposition Zrotation Yrotation Xrotation 
	JOINT LHipJoint
	{
		OFFSET 0 0 0
		CHANNELS 3 Zrotation Yrotation Xrotation
		JOINT LeftHip
		{
			OFFSET 1.62329 -1.80800 0.67318
			CHANNELS 3 Zrotation Yrotation Xrotation
			JOINT LeftKnee
			{
				OFFSET 2.57139 -7.06484 0.00000
				CHANNELS 3 Zrotation Yrotation Xrotation
				JOINT LeftAnkle
				{
					OFFSET 2.52017 -6.92413 0.00000
					CHANNELS 3 Zrotation Yrotation Xrotation
					JOINT LeftToe
					{
						OFFSET 0.23295 -0.64001 2.10214
						CHANNELS 3 Zrotation Yrotation Xrotation
						End Site
						{
							OFFSET 0.00000 -0.00000 1.10139
						}
					}
				}
			}
		}
	}
	JOINT RHipJoint
	{
		OFFSET 0 0 0
		CHANNELS 3 Zrotation Yrotation Xrotation
		JOINT RightHip
		{
			OFFSET -1.48061 -1.80800 0.67318
			CHANNELS 3 Zrotation Yrotation Xrotation
			JOINT RightKnee
			{
				OFFSET -2.63258 -7.23296 0.00000
				CHANNELS 3 Zrotation Yrotation Xrotation
				JOINT RightAnkle
				{
					OFFSET -2.54779 -7.00000 0.00000
					CHANNELS 3 Zrotation Yrotation Xrotation
					JOINT RightToe
					{
						OFFSET -0.23067 -0.63376 2.12161
						CHANNELS 3 Zrotation Yrotation Xrotation
						End Site
						{
							OFFSET -0.00000 -0.00000 1.11000
						}
					}
				}
			}
		}
	}
	JOINT lowerback
	{
		OFFSET 0 0 0
		CHANNELS 3 Zrotation Yrotation Xrotation
		JOINT Chest
		{
			OFFSET -0.02108 2.07573 -0.16981
			CHANNELS 3 Zrotation Yrotation Xrotation
			JOINT Chest2
			{
				OFFSET 0.05070 2.08439 -0.03141
				CHANNELS 3 Zrotation Yrotation Xrotation
				JOINT lowerneck
				{
					OFFSET 0 0 0
					CHANNELS 3 Zrotation Yrotation Xrotation
					JOINT Neck
					{
						OFFSET -0.10731 1.60408 0.31370
						CHANNELS 3 Zrotation Yrotation Xrotation
						JOINT Head
						{
							OFFSET 0.08411 1.65679 -0.30822
							CHANNELS 3 Zrotation Yrotation Xrotation
							End Site
							{
								OFFSET 0.03911 1.69149 -0.14146
							}
						}
					}
				}
				JOINT LeftCollar
				{
					OFFSET 0 0 0
					CHANNELS 3 Zrotation Yrotation Xrotation
					JOINT LeftShoulder
					{
						OFFSET 3.52315 0.73219 -0.54694
CHANNELS 3 Zrotation Xrotation Yrotation
						JOINT LeftElbow
						{
OFFSET 0 -5.324620 -0.000000
CHANNELS 3 Zrotation Xrotation Yrotation
							JOINT LeftWrist
							{
OFFSET 0 -3.484020 -0.000000
CHANNELS 3 Zrotation Xrotation Yrotation
								JOINT lhand
								{
									OFFSET 0 0 0
CHANNELS 3 Zrotation Xrotation Yrotation
									JOINT LFingers
									{
OFFSET 0 -0.572480 -0.000000
CHANNELS 3 Zrotation Xrotation Yrotation
										End Site
										{
OFFSET 0 -0.461540 -0.000000
										}
									}
								}
								JOINT LThumb
								{
OFFSET 0 0.000000 0.000000
CHANNELS 3 Zrotation Xrotation Yrotation
									End Site
									{
OFFSET 0 -0.468590 0.468590
									}
								}
							}
						}
					}
				}
				JOINT RightCollar
				{
					OFFSET 0 0 0
					CHANNELS 3 Zrotation Yrotation Xrotation
					JOINT RightShoulder
					{
						OFFSET -3.41766 0.93592 -0.10019
CHANNELS 3 Zrotation Xrotation Yrotation
						JOINT RightElbow
						{
OFFSET 0 -5.335890 -0.000000
CHANNELS 3 Zrotation Xrotation Yrotation
							JOINT RightWrist
							{
OFFSET 0 -3.641340 -0.000000
CHANNELS 3 Zrotation Xrotation Yrotation
								JOINT rhand
								{
									OFFSET 0 0 0
CHANNELS 3 Zrotation Xrotation Yrotation
									JOINT RFingers
									{
OFFSET 0 -0.734810 -0.000000
CHANNELS 3 Zrotation Xrotation Yrotation
										End Site
										{
OFFSET 0 -0.592420 -0.000000
										}
									}
								}
								JOINT RThumb
								{
OFFSET 0 0.000000 0.000000
CHANNELS 3 Zrotation Xrotation Yrotation
									End Site
									{
OFFSET 0 -0.601470 0.601470
									}
								}
							}
						}
					}
				}
			}
		}
	}
}
MOTION
Frames: 4
Frame Time: 0.03333
-1.4856 16.9553 -0.1495 3.5101 2.7985 4.984 0.0 0.0 0.0 -25.6654 -2.8374 -20.9397 5.296200000000001 13.7097 42.087 0.9911 -14.362 -19.1084 0.086 -1.8918 -5.2067 0.0 0.0 0.0 12.832900000000002 4.803 -34.9874 -14.968 -19.3818 75.1402 -0.583 13.9892 -15.6842 -0.1398 2.4095000000000004 -6.6389000000000005 -6.262800000000001 -0.6409 11.2379 1.2303 -1.5704 0.7198000000000001 5.0814 -0.6095000000000002 -5.3512 -9.0264 -2.3263 -27.4538 5.678600000000001 -1.0822 20.3424 3.3962 -0.4597 11.196 -0.0 -0.0 0.0 7.4925 6.689300000000001 -31.9959 60.6699 -56.485800000000005 34.899 24.934800000000003 -18.5457 -28.8249 0.0 0.0 0.0 -7.125000000000001 0.0 0.0 -6.9181 61.101000000000006 2.7208 -0.0 -0.0 0.0 -5.7804 9.722000000000001 36.1978 -56.611 -55.3371 -31.537 -22.309000000000005 -0.1209 -6.248700000000001 0.0 0.0 0.0 7.125000000000001 0.0 -0.0 3.2655 23.2326 1.7153 
-1.4969454545454546 17.12768181818182 0.3761818181818182 2.1069181818181817 0.04732727272727272 3.342736363636363 0.0 0.0 0.0 -24.63398181818182 -1.9575545454545453 -15.961972727272727 4.817227272727274 13.173736363636362 40.02448181818181 1.3199909090909092 -10.45090909090909 -20.73681818181818 0.3000909090909091 -3.519754545454545 -9.729527272727275 0.0 0.0 0.0 17.675872727272726 5.632290909090909 -16.69651818181818 -6.1134272727272725 -14.53450909090909 45.42996363636364 -1.4071636363636364 14.588636363636363 -22.129627272727273 -0.0838909090909091 -1.8676545454545452 5.139990909090908 -4.314936363636364 -0.3246363636363636 5.918854545454545 1.7746363636363636 -0.6759727272727272 -0.5940090909090909 4.334227272727272 -0.22525454545454543 -3.8692454545454544 -9.583 -2.2231636363636365 -27.094854545454545 5.255463636363636 -0.679690909090909 23.3306 3.472136363636364 -0.45230000000000004 12.249545454545455 -0.0 -0.0 0.0 -7.368754545454546 7.118836363636364 -11.460527272727273 24.06817272727273 -35.231427272727274 7.7478727272727275 27.671545454545452 11.148299999999999 -33.20613636363636 0.0 0.0 0.0 -7.124999999999999 0.0 0.0 -6.307 66.34500909090909 3.252018181818182 -0.0 -0.0 0.0 -5.379845454545454 7.9481909090909095 11.271890909090908 -32.37429090909091 -42.84162727272727 -12.9953 -19.56230909090909 15.332136363636364 1.9590272727272726 0.0 0.0 0.0 7.124999999999999 0.0 -0.0 5.645690909090909 32.02573636363636 1.8000818181818181 
-1.61403 18.891476363636368 0.44128818181818186 -0.015741818181818176 2.1096654545454543 -0.15065181818181822 0.0 0.0 0.0 -7.719242727272727 -13.230728181818183 -0.03516545454545454 1.9660390909090908 8.794137272727273 25.15400090909091 0.29087363636363633 5.441941818181818 9.758836363636362 2.386771818181818 -9.62186 -27.76675272727273 0.0 0.0 0.0 7.405430909090909 6.500195454545454 -5.126162727272727 -2.9522118181818184 -10.61683181818182 30.998835454545457 0.3894945454545454 -11.489948181818182 -7.805789090909091 -0.0015090909090909091 -0.24202636363636365 0.6649127272727273 -2.3509727272727274 -0.49646454545454544 5.990849090909091 2.7985972727272728 -0.7129136363636364 -1.73699 4.315747272727273 -0.2315118181818182 -5.107850909090909 -10.788832727272728 -2.6233654545454543 -23.23453 6.777297272727273 -1.755570909090909 26.992552727272727 4.172622727272728 -0.9607163636363636 13.090553636363637 0.0 -0.0 0.0 74.29677727272727 -2.4261872727272724 36.52616090909091 52.72843363636364 -54.00455545454546 28.376383636363638 28.756155454545457 2.290492727272728 -32.84510181818182 0.0 0.0 0.0 -7.125 0.0 0.0 -4.634904545454546 66.29215363636364 2.3825381818181817 0.0 -0.0 0.0 -86.54737181818183 -7.873855454545454 -40.124477272727276 -58.53740454545455 -55.90452545454546 -33.12757818181818 -30.907694545454547 15.330721818181818 7.10481090909091 0.0 0.0 0.0 7.125 0.0 -0.0 -3.5391709090909096 38.21789363636364 -0.6039427272727274 
-1.7570254545454547 19.053412727272725 0.15868727272727273 1.2739399999999999 3.625329090909091 1.1423763636363637 0.0 0.0 0.0 -6.703861818181818 -9.308850909090907 -3.6149381818181814 1.8157581818181818 8.47082 24.153925454545455 0.15608181818181818 2.5407418181818184 7.142927272727273 1.3153345454545455 -7.264139999999999 -20.500276363636363 0.0 0.0 0.0 5.3092927272727275 7.253072727272727 -4.570974545454545 -2.4491181818181817 -9.744156363636364 28.15281090909091 0.9386327272727272 -17.226345454545456 -2.6092472727272726 -0.3213490909090909 -3.6419454545454544 10.071734545454545 -3.0132472727272726 -0.6912254545454546 7.418356363636364 1.7454527272727272 -1.1129563636363635 -1.5438381818181819 3.6567218181818184 -0.4162945454545455 -5.687794545454546 -10.754307272727273 -2.8907745454545455 -25.85666727272727 6.765227272727273 -1.7717654545454544 24.90362181818182 4.1049 -0.8856945454545455 12.765632727272727 0.0 0.0 0.0 92.67111272727271 -5.547058181818182 40.96759090909091 33.42401454545454 -43.64951090909091 13.715250909090908 25.790819999999997 -7.9681145454545454 -35.03356727272727 0.0 0.0 0.0 -7.125 0.0 0.0 -10.253034545454545 67.62392545454544 5.600672727272728 0.0 0.0 0.0 -96.96029636363636 -7.74374 -49.73069454545454 -35.50969272727272 -45.16868909090909 -15.175067272727274 -31.963045454545455 0.053438181818181774 13.881547272727271 0.0 0.0 0.0 7.125 0.0 -0.0 -4.299276363636364 46.17526545454546 0.12434363636363635 
